<mxfile host="app.diagrams.net" modified="2021-01-26T08:48:01.092Z" agent="5.0 (Windows NT 10.0; Win64; x64) AppleWebKit/537.36 (KHTML, like Gecko) Chrome/87.0.4280.141 Safari/537.36" etag="8aJ5MHjx7mNXXsX038De" version="14.2.7" type="github">
  <diagram id="cw4YuQnDHmF-IEU9DvBz" name="第 1 页">
    <mxGraphModel dx="782" dy="381" grid="1" gridSize="10" guides="1" tooltips="1" connect="1" arrows="1" fold="1" page="1" pageScale="1" pageWidth="827" pageHeight="1169" math="0" shadow="0">
      <root>
        <mxCell id="0" />
        <mxCell id="1" parent="0" />
        <mxCell id="NWrJKCxPM7SpE2ZuoWPE-1" value="标注员&lt;br&gt;" style="shape=umlActor;verticalLabelPosition=bottom;verticalAlign=top;html=1;" vertex="1" parent="1">
          <mxGeometry x="60" y="280" width="30" height="60" as="geometry" />
        </mxCell>
        <mxCell id="NWrJKCxPM7SpE2ZuoWPE-2" value="注册" style="ellipse;whiteSpace=wrap;html=1;" vertex="1" parent="1">
          <mxGeometry x="240" y="130" width="100" height="50" as="geometry" />
        </mxCell>
        <mxCell id="NWrJKCxPM7SpE2ZuoWPE-6" value="登陆" style="ellipse;whiteSpace=wrap;html=1;" vertex="1" parent="1">
          <mxGeometry x="240" y="210" width="100" height="50" as="geometry" />
        </mxCell>
        <mxCell id="NWrJKCxPM7SpE2ZuoWPE-7" value="查看，领取任务" style="ellipse;whiteSpace=wrap;html=1;" vertex="1" parent="1">
          <mxGeometry x="240" y="290" width="100" height="50" as="geometry" />
        </mxCell>
        <mxCell id="NWrJKCxPM7SpE2ZuoWPE-8" value="Use Case" style="ellipse;whiteSpace=wrap;html=1;" vertex="1" parent="1">
          <mxGeometry x="240" y="360" width="100" height="50" as="geometry" />
        </mxCell>
        <mxCell id="NWrJKCxPM7SpE2ZuoWPE-9" value="Use Case" style="ellipse;whiteSpace=wrap;html=1;" vertex="1" parent="1">
          <mxGeometry x="240" y="430" width="100" height="50" as="geometry" />
        </mxCell>
      </root>
    </mxGraphModel>
  </diagram>
</mxfile>
